<svg width="205" height="151" viewBox="0 0 205 151" fill="none" xmlns="http://www.w3.org/2000/svg">
<path d="M138.166 29C152.551 29 163.732 29.0004 172.437 29.9316C181.24 30.8815 188.212 32.8489 193.774 37.2939C199.486 41.8633 202.156 47.8054 203.416 55.2988C204.614 62.4507 204.614 71.5519 204.614 82.9004V84.0371C204.614 95.1002 204.614 102.756 203.372 108.461C202.702 111.534 201.647 114.203 199.989 116.674C198.35 119.107 196.264 121.157 193.774 123.144C189.857 126.279 185.237 128.172 179.78 129.352V145.406C179.78 146.222 179.565 147.023 179.157 147.729C178.749 148.436 178.163 149.023 177.457 149.432C176.751 149.84 175.95 150.057 175.134 150.059C174.318 150.06 173.516 149.847 172.809 149.441C169.171 147.362 165.949 145.096 163 142.96L161.112 141.588C159.012 140.016 156.868 138.504 154.681 137.056C149.441 133.653 144.436 131.438 137.874 131.438H137.583C123.198 131.438 112.017 131.437 103.312 130.506C94.5093 129.556 87.5372 127.589 81.9746 123.144C79.4913 121.157 77.3994 119.107 75.7666 116.674C74.1029 114.203 73.0475 111.534 72.377 108.461C72.2358 107.812 72.1109 107.138 72 106.437C85.9839 106.436 96.9014 106.419 105.437 105.506C114.24 104.556 121.212 102.589 126.774 98.1436C129.258 96.1569 131.35 94.1075 132.982 91.6738C134.646 89.2031 135.702 86.5338 136.372 83.4609C137.535 78.1169 137.608 71.0622 137.612 61.0986C137.785 61.1282 137.962 61.1445 138.14 61.1445H162.282L155.803 67.6318C155.511 67.9238 155.28 68.2709 155.122 68.6523C154.964 69.0338 154.883 69.4426 154.883 69.8555C154.883 70.2683 154.964 70.6771 155.122 71.0586C155.28 71.4401 155.511 71.7871 155.803 72.0791C156.094 72.371 156.44 72.6028 156.821 72.7607C157.202 72.9187 157.611 73 158.023 73C158.436 73 158.844 72.9186 159.225 72.7607C159.606 72.6027 159.953 72.3711 160.244 72.0791L172.082 60.2227C172.67 59.6333 173 58.834 173 58.001C173 57.168 172.67 56.3687 172.082 55.7793L160.244 43.9209C159.655 43.3313 158.856 43.0001 158.023 43C157.191 43 156.392 43.3313 155.803 43.9209C155.214 44.5106 154.883 45.3106 154.883 46.1445C154.883 46.9784 155.214 47.7785 155.803 48.3682L162.282 54.8574H138.14C137.962 54.8574 137.785 54.8738 137.612 54.9033C137.604 44.9362 137.507 36.81 136.416 30.3047C136.342 29.8644 136.262 29.4296 136.178 29H138.166Z" fill="#EE575A"/>
<path d="M67.0313 0C81.416 0 92.5977 4.17576e-05 101.302 0.9375C110.105 1.88118 117.077 3.84266 122.64 8.29395C128.351 12.8633 131.021 18.805 132.281 26.3047C133.479 33.4504 133.479 42.5517 133.479 53.9004V55.0371C133.479 66.1002 133.479 73.7555 132.237 79.4609C131.567 82.5338 130.511 85.2031 128.848 87.6738C127.215 90.1075 125.123 92.1569 122.64 94.1436C117.077 98.5886 110.105 100.556 101.302 101.506C92.5977 102.437 81.416 102.438 67.0313 102.438H66.7393C60.1773 102.438 55.1733 104.654 49.9336 108.056C47.7466 109.504 45.6019 111.016 43.502 112.588L41.6143 113.96C38.6654 116.096 35.4436 118.362 31.8057 120.441C31.0979 120.847 30.2953 121.06 29.4795 121.059C28.6639 121.057 27.8632 120.84 27.1572 120.432C26.4512 120.023 25.8648 119.436 25.457 118.729C25.0493 118.023 24.8337 117.222 24.833 116.406V100.352C19.3761 99.172 14.7572 97.2786 10.8398 94.1436C8.3503 92.1569 6.264 90.1075 4.625 87.6738C2.96754 85.2031 1.91169 82.5338 1.24121 79.4609C-0.000446852 73.7555 2.99188e-10 66.1002 2.31019e-10 55.0371V53.9004C3.57396e-10 42.5519 9.90847e-05 33.4507 1.19824 26.2988C2.45853 18.8054 5.12818 12.8633 10.8398 8.29395C16.4024 3.84893 23.3745 1.88151 32.1777 0.931641C40.8818 0.000390636 52.0635 0 66.4482 0H67.0313ZM46.2383 60.999C45.8187 60.999 45.4023 61.0816 45.0146 61.2422C44.6271 61.4028 44.2752 61.6389 43.9785 61.9355L31.9346 73.9834C31.3364 74.5823 31 75.3947 31 76.2412C31 77.0876 31.3364 77.8992 31.9346 78.498L43.9785 90.5488C44.5777 91.1481 45.3908 91.4854 46.2383 91.4854C47.0856 91.4852 47.8979 91.148 48.4971 90.5488C49.0962 89.9497 49.4335 89.1373 49.4336 88.29C49.4336 87.4426 49.0963 86.6295 48.4971 86.0303L41.9043 79.4355H83.7559C84.603 79.4355 85.6305 78.9193 86.2295 78.3203C86.8284 77.7214 87.0536 77.5186 87.0537 76.6719C87.0537 75.8247 86.8285 74.7973 86.2295 74.1982C85.6305 73.5992 84.603 73.374 83.7559 73.374L41.7158 73.3496L48.4971 66.4541C48.7938 66.1574 49.0289 65.8047 49.1895 65.417C49.35 65.0294 49.4336 64.6139 49.4336 64.1943C49.4336 63.7748 49.35 63.3593 49.1895 62.9717C49.0289 62.5842 48.7937 62.2322 48.4971 61.9355C48.2004 61.6389 47.8486 61.4028 47.4609 61.2422C47.0734 61.0817 46.6578 60.9991 46.2383 60.999Z" fill="#EE575A" fill-opacity="0.8"/>
</svg>
